<svg width="18" height="18" viewBox="0 0 18 18" fill="none" xmlns="http://www.w3.org/2000/svg">
<path d="M9 18C13.9706 18 18 13.9706 18 9C18 4.02944 13.9706 0 9 0C4.02944 0 0 4.02944 0 9C0 13.9706 4.02944 18 9 18Z" fill="#F0F0F0"/>
<path d="M2.65342 4.12976C2.02502 4.94735 1.55117 5.8897 1.27527 6.91342H5.43708L2.65342 4.12976Z" fill="#0052B4"/>
<path d="M16.7245 6.91303C16.4486 5.88934 15.9747 4.94699 15.3463 4.12939L12.5627 6.91303H16.7245Z" fill="#0052B4"/>
<path d="M1.27527 11.0873C1.55121 12.111 2.02505 13.0533 2.65342 13.8709L5.43699 11.0873H1.27527Z" fill="#0052B4"/>
<path d="M13.8704 2.65394C13.0528 2.02554 12.1105 1.55169 11.0868 1.27576V5.43754L13.8704 2.65394Z" fill="#0052B4"/>
<path d="M4.12891 15.3464C4.9465 15.9748 5.88884 16.4486 6.91253 16.7246V12.5628L4.12891 15.3464Z" fill="#0052B4"/>
<path d="M6.9125 1.27576C5.88881 1.55169 4.94647 2.02554 4.12891 2.65391L6.9125 5.43751V1.27576Z" fill="#0052B4"/>
<path d="M11.0869 16.7246C12.1106 16.4486 13.0529 15.9748 13.8705 15.3464L11.0869 12.5628V16.7246Z" fill="#0052B4"/>
<path d="M12.5627 11.0873L15.3463 13.8709C15.9747 13.0533 16.4486 12.111 16.7245 11.0873H12.5627Z" fill="#0052B4"/>
<path d="M16.9323 7.95653H10.0435H10.0435V1.06772C9.70191 1.02325 9.35366 1 9 1C8.64628 1 8.29809 1.02325 7.95653 1.06772V7.95647V7.9565H1.06772C1.02325 8.29809 1 8.64634 1 9C1 9.35372 1.02325 9.70191 1.06772 10.0435H7.95647H7.9565V16.9323C8.29809 16.9768 8.64628 17 9 17C9.35366 17 9.70191 16.9768 10.0435 16.9323V10.0435V10.0435H16.9323C16.9768 9.70191 17 9.35372 17 9C17 8.64634 16.9768 8.29809 16.9323 7.95653Z" fill="#D80027"/>
<path d="M11.0869 11.0868L14.6568 14.6567C14.821 14.4926 14.9776 14.321 15.127 14.1431L12.0707 11.0868H11.0869V11.0868Z" fill="#D80027"/>
<path d="M6.91267 11.0869H6.91261L3.34277 14.6567C3.5069 14.8209 3.67849 14.9775 3.85637 15.1269L6.91267 12.0706V11.0869Z" fill="#D80027"/>
<path d="M6.91342 6.91318V6.91311L3.34354 3.3432C3.17935 3.50733 3.02273 3.67892 2.87329 3.8568L5.92963 6.91314H6.91342V6.91318Z" fill="#D80027"/>
<path d="M11.0869 6.91302L14.6568 3.34308C14.4927 3.1789 14.3211 3.02227 14.1432 2.87286L11.0869 5.92921V6.91302Z" fill="#D80027"/>
<circle cx="9" cy="9" r="8.5" stroke="white"/>
</svg>
