<svg width="18" height="18" viewBox="0 0 18 18" fill="none" xmlns="http://www.w3.org/2000/svg">
<path d="M1.49768 11.7826C2.62802 14.829 5.56036 17 9.00007 17C12.4398 17 15.3721 14.829 16.5025 11.7826L9.00007 11.087L1.49768 11.7826Z" fill="#FFDA44"/>
<path d="M9.00007 1C5.56036 1 2.62802 3.171 1.49768 6.2174L9.00007 6.91302L16.5025 6.21737C15.3721 3.171 12.4398 1 9.00007 1Z" fill="black"/>
<path d="M1.49759 6.21741C1.17603 7.08406 1 8.02144 1 9C1 9.97856 1.17603 10.9159 1.49759 11.7826H16.5024C16.824 10.9159 17 9.97856 17 9C17 8.02144 16.824 7.08406 16.5024 6.21741H1.49759Z" fill="#D80027"/>
<circle cx="9" cy="9" r="8.5" stroke="white"/>
</svg>
