<svg width="22" height="29" viewBox="0 0 22 29" xmlns="http://www.w3.org/2000/svg">
<path d="M20.9733 15.4667C18.88 10.0267 11.4266 9.73333 13.2266 1.82666C13.36 1.23999 12.7333 0.786661 12.2266 1.09333C7.38665 3.94666 3.90665 9.66666 6.82665 17.16C7.06665 17.7733 6.34665 18.3467 5.82665 17.9467C3.41331 16.12 3.15998 13.4933 3.37331 11.6133C3.45331 10.92 2.54665 10.5867 2.15998 11.16C1.25331 12.5467 0.333313 14.7867 0.333313 18.16C0.83998 25.6267 7.14665 27.92 9.41331 28.2133C12.6533 28.6267 16.16 28.0267 18.68 25.72C21.4533 23.1467 22.4666 19.04 20.9733 15.4667ZM8.59998 22.1733C10.52 21.7067 11.5066 20.32 11.7733 19.0933C12.2133 17.1867 10.4933 15.32 11.6533 12.3067C12.0933 14.8 16.0133 16.36 16.0133 19.08C16.12 22.4533 12.4666 25.3467 8.59998 22.1733Z"/>
</svg>
