<?xml version="1.0" encoding="utf-8"?>
<!-- Generator: Adobe Illustrator 26.0.0, SVG Export Plug-In . SVG Version: 6.00 Build 0)  -->
<svg version="1.1" id="Layer_1" xmlns="http://www.w3.org/2000/svg" xmlns:xlink="http://www.w3.org/1999/xlink" x="0px" y="0px"
	 width="350px" height="150px" viewBox="0 0 350 150" style="enable-background:new 0 0 350 150;" xml:space="preserve">
<style type="text/css">
	.st0{fill:#5CB8B2;}
</style>
<g>
	<path d="M103.8,69.9h-4.5v-2.9h12.3v2.9h-4.5v12.9h-3.3V69.9z"/>
	<path d="M114.4,67.1h3.3v6.7h6.8v-6.7h3.2v15.8h-3.2v-6.2h-6.8v6.2h-3.3V67.1z"/>
	<path d="M131.6,67.1h10.5v2.9h-7.2v3.6h6.4v2.8h-6.4v3.7h7.5v2.9h-10.8V67.1z"/>
	<path d="M157.4,66.9h0.3l7.2,15.9h-3.4l-0.9-2.1h-6.1l-0.9,2.1h-3.1L157.4,66.9z M159.5,78.1l-1-2.4c-0.4-1-0.9-2.6-0.9-2.8
		c0,0.1-0.5,1.7-0.9,2.8l-1,2.4H159.5z"/>
	<path d="M167.8,67.1h4.9c4.8,0,8.3,3.2,8.3,7.9c0,4.7-3.4,7.9-8.3,7.9h-4.9V67.1z M172.4,80.1c3.5,0,5.1-2.1,5.1-5.1
		c0-2.9-1.6-5-5.1-5h-1.4v10.1H172.4z"/>
	<path d="M184.2,67.1h10.4v2.9h-7.2v3.6h6.3v2.8h-6.3v3.7h7.5v2.9h-10.8V67.1H184.2z"/>
	<path d="M197.8,75.1c0-4.7,3.6-8.1,8.1-8.1c2.8,0,4.9,1,6.3,3.2l-2.5,1.8c-0.7-1.2-2-2.1-3.8-2.1c-2.9,0-4.8,2.2-4.8,5.2
		s1.9,5.2,4.8,5.2c2,0,3.2-1,4.1-2.3l2.5,1.7c-1.4,2.1-3.5,3.5-6.6,3.5C201.3,83.1,197.8,79.6,197.8,75.1z"/>
	<path d="M214.6,75.1c0-4.7,3.6-8.1,8.1-8.1c2.9,0,4.9,1,6.3,3.2l-2.5,1.8c-0.7-1.2-2-2.1-3.8-2.1c-2.9,0-4.8,2.2-4.8,5.2
		s1.9,5.2,4.8,5.2c2,0,3.2-1,4.1-2.3l2.5,1.7c-1.4,2.1-3.5,3.5-6.6,3.5C218.2,83.1,214.6,79.6,214.6,75.1z"/>
	<path d="M231.6,75.1c0-4.7,3.6-8.1,8.2-8.1c4.6,0,8.2,3.4,8.2,8.1s-3.6,8.1-8.2,8.1S231.6,79.6,231.6,75.1z M244.6,75.1
		c0-2.9-2-5.2-4.8-5.2c-2.9,0-4.8,2.2-4.8,5.2s1.9,5.2,4.8,5.2S244.6,77.9,244.6,75.1z"/>
	<path d="M255.1,75.1c0-4.7,3.3-8.1,8.1-8.1c2.6,0,4.4,0.7,5.7,2.2l-2.2,2.2c-0.8-0.8-1.7-1.4-3.5-1.4c-2.9,0-4.7,2.2-4.7,5.2
		s1.9,5.2,5.2,5.2c1,0,2.3-0.2,3.1-0.6v-2.6h-3.8v-2.9h6.8v7.1c-0.9,0.7-3.2,1.8-6.1,1.8C258.5,83.1,255.1,79.6,255.1,75.1z"/>
	<path d="M279.2,67.1c3.2,0,5.9,1.5,5.9,5.2c0,2.4-1.3,3.9-3.1,4.6l3.6,6h-3.7l-3.2-5.5h-2.1v5.5h-3.3V67.1H279.2z M279.1,74.8
		c1.6,0,2.6-0.6,2.6-2.4s-1.1-2.3-2.6-2.3h-2.5v4.7H279.1L279.1,74.8z"/>
	<path d="M287.9,75.1c0-4.7,3.6-8.1,8.2-8.1s8.2,3.4,8.2,8.1s-3.6,8.1-8.2,8.1S287.9,79.6,287.9,75.1z M300.9,75.1
		c0-2.9-1.9-5.2-4.8-5.2s-4.8,2.2-4.8,5.2s2,5.2,4.8,5.2C299,80.2,300.9,77.9,300.9,75.1z"/>
	<path d="M307.6,77.2V67.1h3.2v9.9c0,2.3,1,3.2,3.2,3.2c2.1,0,3.1-0.9,3.1-3.2v-9.9h3.3v10.1c0,4-2.8,5.9-6.4,5.9
		C310.4,83.1,307.6,81.2,307.6,77.2z"/>
	<path d="M324.2,67.1h5.6c3.2,0,5.9,1.6,5.9,5.3c0,3.7-2.7,5.3-5.9,5.3h-2.3v5.2h-3.2V67.1H324.2z M329.6,74.9
		c1.6,0,2.6-0.7,2.6-2.5s-1.1-2.4-2.6-2.4h-2.2v4.9H329.6z"/>
	<path class="st0" d="M84.6,38h-2v73.9h2V38z"/>
	<path d="M39.7,47.4l-25.5,55.4h2.1l17-37.1l16.8,37.1h17.7L39.7,47.4z M25.5,87.9l-0.9,1.9h10.5l-0.9-1.9H25.5z"/>
</g>
</svg>
