<svg width="160" height="32" viewBox="0 0 160 32" fill="none" xmlns="http://www.w3.org/2000/svg">
    <path d="M56.2936 16.2539C58.9479 16.2539 60.9543 15.1392 62.1874 13.3152L60.4945 12.16C59.5749 13.4773 58.2582 14.3285 56.2936 14.3285C53.3467 14.3285 51.2567 12.1195 51.2567 9.18079C51.2567 6.24212 53.3467 4.05332 56.2936 4.05332C58.1537 4.05332 59.4913 4.84372 60.2855 6.03946L61.9784 4.86399C60.7244 3.03999 58.8434 2.12799 56.2936 2.12799C52.2599 2.12799 48.9995 5.06666 48.9995 9.18079C48.9995 13.2949 52.2599 16.2539 56.2936 16.2539Z"/>
    <path d="M68.5168 16.2539C71.192 16.2539 73.2402 14.3488 73.2402 11.8155C73.2402 9.28212 71.192 7.37706 68.5168 7.37706C65.8625 7.37706 63.7725 9.28212 63.7725 11.8155C63.7725 14.3488 65.8625 16.2539 68.5168 16.2539ZM68.5168 14.4907C66.9493 14.4907 65.9461 13.376 65.9461 11.8155C65.9461 10.2549 66.9493 9.16052 68.5168 9.16052C70.0843 9.16052 71.0666 10.2549 71.0666 11.8155C71.0666 13.376 70.0843 14.4907 68.5168 14.4907Z"/>
    <path d="M75.4778 16.0715H77.5887V11.4101C77.5887 9.99146 78.3202 9.26186 79.5742 9.26186C80.7864 9.26186 81.2044 9.91039 81.2044 11.0859V16.0715H83.3153V11.4101C83.3153 9.99146 84.0468 9.26186 85.2799 9.26186C86.4921 9.26186 86.931 9.91039 86.931 11.0859V16.0715H89.0419V10.8832C89.0419 8.71466 87.8088 7.37706 85.7397 7.37706C84.4648 7.37706 83.4198 7.98506 82.7301 8.99839C82.2703 7.96479 81.4343 7.37706 80.1594 7.37706C79.0308 7.37706 78.1321 7.94452 77.5469 9.01866L77.5887 7.55946H75.4778V16.0715Z"/>
    <path d="M91.6427 20.368H93.7745V14.6123C94.2761 15.5648 95.3211 16.2539 96.7841 16.2539C99.0622 16.2539 100.901 14.3691 100.901 11.7952C100.901 9.22132 99.0831 7.37706 96.8259 7.37706C95.3211 7.37706 94.2761 8.08639 93.7118 9.14026L93.7745 7.55946H91.6427V20.368ZM96.2407 14.4501C94.6941 14.4501 93.6909 13.3963 93.6909 11.7952C93.6909 10.2549 94.6941 9.20106 96.2407 9.20106C97.7664 9.20106 98.7278 10.2549 98.7278 11.7952C98.7278 13.3963 97.7664 14.4501 96.2407 14.4501Z"/>
    <path d="M106.77 16.2539C108.233 16.2539 109.299 15.504 109.8 14.4907L109.779 16.0715H111.89V7.55946H109.779L109.8 9.11999C109.257 8.06612 108.275 7.37706 106.791 7.37706C104.492 7.37706 102.736 9.24159 102.736 11.7952C102.736 14.3691 104.533 16.2539 106.77 16.2539ZM107.334 14.4501C105.829 14.4501 104.931 13.376 104.931 11.7952C104.931 10.2549 105.829 9.20106 107.334 9.20106C108.881 9.20106 109.821 10.2752 109.821 11.8155C109.821 13.376 108.881 14.4501 107.334 14.4501Z"/>
    <path d="M117.698 16.2539C120.185 16.2539 121.105 15.0581 121.105 13.5989C121.105 11.7952 119.6 11.2683 118.221 10.9237C116.841 10.5792 116.298 10.4373 116.298 9.78879C116.298 9.28212 116.737 8.99839 117.531 8.99839C118.325 8.99839 118.931 9.36319 119.349 9.82932L120.582 8.65386C119.914 7.94452 118.931 7.37706 117.531 7.37706C115.796 7.37706 114.396 8.18772 114.396 9.89012C114.396 11.5723 115.692 12.16 116.988 12.5045C118.472 12.9099 119.119 13.0112 119.119 13.7003C119.119 14.2677 118.639 14.6123 117.573 14.6123C116.57 14.6123 115.755 14.2677 115.211 13.5179L113.769 14.4907C114.354 15.4027 115.692 16.2539 117.698 16.2539Z"/>
    <path d="M126.373 16.2539C128.86 16.2539 129.779 15.0581 129.779 13.5989C129.779 11.7952 128.274 11.2683 126.895 10.9237C125.516 10.5792 124.972 10.4373 124.972 9.78879C124.972 9.28212 125.411 8.99839 126.205 8.99839C127 8.99839 127.606 9.36319 128.024 9.82932L129.257 8.65386C128.588 7.94452 127.606 7.37706 126.205 7.37706C124.471 7.37706 123.07 8.18772 123.07 9.89012C123.07 11.5723 124.366 12.16 125.662 12.5045C127.146 12.9099 127.794 13.0112 127.794 13.7003C127.794 14.2677 127.313 14.6123 126.247 14.6123C125.244 14.6123 124.429 14.2677 123.886 13.5179L122.443 14.4907C123.029 15.4027 124.366 16.2539 126.373 16.2539Z"/>
    <path fill-rule="evenodd" clip-rule="evenodd" d="M65.6026 27.8961C65.6026 29.109 64.6547 29.8123 63.35 29.8123C62.0352 29.8123 61.2402 29.16 60.8529 28.3752L61.7396 27.8859C62.0658 28.4261 62.4837 28.8542 63.3296 28.8542C64.0329 28.8542 64.5324 28.4771 64.5324 27.9063C64.5324 27.305 64.1247 27.04 63.3704 26.7036L62.9117 26.4998C61.9027 26.0513 61.2911 25.5417 61.2911 24.4714C61.2911 23.442 62.0862 22.7081 63.2379 22.7081C64.1552 22.7081 64.777 23.0547 65.1949 23.7987L64.3489 24.3186C64.0839 23.8599 63.7781 23.6458 63.2379 23.6458C62.6875 23.6458 62.341 23.9822 62.341 24.4511C62.341 24.9709 62.6366 25.2053 63.3398 25.5111L63.7883 25.7149C64.9706 26.2347 65.6026 26.7851 65.6026 27.8961ZM67.9897 25.6436C67.9897 25.9595 67.9489 26.3774 67.9082 26.6628C68.0611 26.3469 68.2649 25.9595 68.4382 25.7251L70.6805 22.7897H71.9036L69.4472 26.0309L72.1788 29.7206H70.8742L68.7338 26.8259L67.9897 27.7331V29.7206H66.9093V22.7897H67.9897V25.6436ZM73.3403 29.7206H74.4105V22.7897H73.3403V29.7206ZM80.3973 29.7206H76.1164V22.7897H77.1968V28.7727H80.3973V29.7206ZM81.6606 29.7206H85.9415V28.7727H82.741V22.7897H81.6606V29.7206ZM90.6144 29.7206H89.5339V22.7897H91.2769C93.1931 22.7897 94.2531 23.8191 94.2531 25.4295C94.2531 27.0298 93.1829 28.0694 91.2769 28.0694H90.6144V29.7206ZM90.6144 23.7376V27.1215H91.2361C92.6019 27.1215 93.1523 26.4794 93.1523 25.4295C93.1523 24.3797 92.5917 23.7376 91.2361 23.7376H90.6144ZM98.8988 27.5802C99.806 27.1827 100.285 26.4488 100.285 25.3786C100.285 23.7885 99.2148 22.7897 97.2986 22.7897H95.5659V29.7206H96.6463V27.9369H97.2986C97.4922 27.9369 97.6859 27.9165 97.8796 27.8961L99.1231 29.7206H100.367L98.8988 27.5802ZM96.6463 27.0094V23.7376H97.2578C98.6134 23.7376 99.1842 24.3389 99.1842 25.3786C99.1842 26.408 98.6338 27.0094 97.2578 27.0094H96.6463ZM106.283 29.7206H101.737V22.7897H106.14V23.7376H102.818V26.4284H105.763V27.3559H102.818V28.7727H106.283V29.7206ZM107.719 29.7206H109.625C111.857 29.7206 113.325 28.3344 113.325 26.2551C113.325 24.1759 111.847 22.7897 109.625 22.7897H107.719V29.7206ZM108.8 28.7727V23.7376H109.554C111.358 23.7376 112.204 24.7772 112.204 26.2551C112.204 27.7331 111.358 28.7727 109.554 28.7727H108.8ZM115.778 29.7206H114.708V22.7897H115.778V29.7206ZM120.725 29.8123C122.019 29.8123 122.998 29.2517 123.599 28.3344L122.774 27.7534C122.325 28.416 121.683 28.844 120.725 28.844C119.288 28.844 118.269 27.7331 118.269 26.2551C118.269 24.7772 119.288 23.6764 120.725 23.6764C121.632 23.6764 122.284 24.0739 122.672 24.6753L123.497 24.0841C122.886 23.1668 121.969 22.7081 120.725 22.7081C118.758 22.7081 117.168 24.186 117.168 26.2551C117.168 28.3242 118.758 29.8123 120.725 29.8123ZM127.389 29.7206H126.319V23.7376H124.26V22.7897H129.448V23.7376H127.389V29.7206ZM53.9298 28.0021C53.9298 29.0002 53.2382 29.7311 52.3816 29.7311C51.8314 29.7311 51.4306 29.4638 51.2263 29.063L51.2499 29.6603H50.4482V23.9861H51.2499V26.9332C51.4699 26.556 51.8393 26.2888 52.3973 26.2888C53.2539 26.2888 53.9298 27.004 53.9298 28.0021ZM51.2184 28.0021C51.2184 28.6229 51.5957 29.0316 52.1772 29.0316C52.7509 29.0316 53.1124 28.6229 53.1124 28.0021C53.1124 27.4048 52.7509 26.9961 52.1772 26.9961C51.5957 26.9961 51.2184 27.4048 51.2184 28.0021ZM55.6048 31.3264H54.7875L55.6441 29.3617L54.2923 26.3595H55.1725L55.8641 28.0099C55.9742 28.2614 56.0528 28.6937 56.0528 28.6937C56.0528 28.6937 56.1235 28.2614 56.2335 28.0099L56.9408 26.3595H57.766L55.6048 31.3264Z"/>
    <path d="M28 28V27.0745C34.1058 27.0745 39.0751 22.1058 39.0751 16H40C40 22.6171 34.6171 28 28 28Z" fill="#2ABCAA"/>
    <path d="M16.9249 16H16C16 9.38225 21.3829 4 28 4V4.92489C21.8923 4.92489 16.9249 9.8936 16.9249 16Z" fill="#2ABCAA"/>
    <path d="M28 24.5228V23.5973C30.0143 23.5949 31.9454 22.7937 33.3697 21.3695C34.7941 19.9453 35.5954 18.0143 35.5979 16H36.5209C36.5209 20.7006 32.6975 24.5228 28 24.5228Z" fill="#2ABCAA"/>
    <path d="M20.402 16H19.479C19.479 11.2994 23.3024 7.47723 27.9999 7.47723V8.40212C25.9855 8.40447 24.0543 9.20572 22.63 10.6301C21.2056 12.0545 20.4043 13.9857 20.402 16Z" fill="#2ABCAA"/>
    <path d="M39.9437 12.7032C39.9889 12.8658 39.9847 13.0382 39.9318 13.1986C39.8789 13.3589 39.7796 13.4999 39.6465 13.6037C39.5134 13.7076 39.3525 13.7696 39.1842 13.782C39.0158 13.7944 38.8476 13.7565 38.7007 13.6732C38.5539 13.5899 38.4351 13.465 38.3593 13.3141C38.2835 13.1632 38.2542 12.9933 38.2751 12.8258C38.296 12.6582 38.3661 12.5007 38.4765 12.373C38.587 12.2453 38.7328 12.1533 38.8956 12.1086C39.1134 12.0487 39.3461 12.0777 39.5426 12.1892C39.7391 12.3006 39.8833 12.4855 39.9437 12.7032Z" fill="#2ABCAA"/>
    <path d="M17.7006 18.8426C17.7453 19.0053 17.7408 19.1777 17.6876 19.3378C17.6344 19.498 17.5349 19.6388 17.4017 19.7424C17.2685 19.8459 17.1075 19.9077 16.9392 19.9198C16.7709 19.9319 16.6027 19.8938 16.4561 19.8103C16.3094 19.7269 16.1908 19.6018 16.1152 19.4509C16.0396 19.3 16.0105 19.1301 16.0315 18.9626C16.0526 18.7952 16.1228 18.6377 16.2333 18.5102C16.3438 18.3826 16.4897 18.2907 16.6524 18.2461C16.8705 18.1863 17.1034 18.2156 17.3 18.3274C17.4965 18.4393 17.6406 18.6246 17.7006 18.8426Z" fill="#2ABCAA"/>
    <path d="M38.2385 9.0208C38.3339 9.16027 38.3858 9.32491 38.3876 9.49389C38.3894 9.66287 38.341 9.82858 38.2486 9.97004C38.1561 10.1115 38.0237 10.2223 37.8682 10.2885C37.7127 10.3547 37.5411 10.3732 37.3751 10.3418C37.209 10.3103 37.0561 10.2303 36.9355 10.1119C36.815 9.99342 36.7323 9.84186 36.698 9.6764C36.6636 9.51093 36.6792 9.339 36.7426 9.18238C36.8061 9.02575 36.9146 8.89148 37.0544 8.79657C37.2413 8.66972 37.4709 8.62209 37.6928 8.66411C37.9147 8.70614 38.1109 8.8344 38.2385 9.0208Z" fill="#2ABCAA"/>
    <path d="M19.1718 22.0188C19.2665 22.1584 19.3177 22.3229 19.319 22.4915C19.3202 22.6602 19.2714 22.8255 19.1788 22.9664C19.0862 23.1074 18.9538 23.2177 18.7985 23.2835C18.6431 23.3492 18.4718 23.3675 18.3061 23.3359C18.1404 23.3043 17.9878 23.2243 17.8676 23.106C17.7473 22.9877 17.6649 22.8364 17.6306 22.6712C17.5963 22.5061 17.6118 22.3344 17.675 22.1781C17.7382 22.0217 17.8464 21.8876 17.9858 21.7926C18.1732 21.6657 18.4032 21.6182 18.6255 21.6606C18.8479 21.703 19.0443 21.8318 19.1718 22.0188Z" fill="#2ABCAA"/>
    <path d="M35.175 5.89997C35.3123 5.99784 35.4174 6.13422 35.4772 6.29186C35.537 6.4495 35.5487 6.62132 35.5108 6.78561C35.4729 6.94989 35.3872 7.09925 35.2644 7.21481C35.1417 7.33037 34.9874 7.40694 34.8211 7.43483C34.6549 7.46271 34.4841 7.44068 34.3303 7.3715C34.1766 7.30232 34.0468 7.1891 33.9574 7.04617C33.868 6.90324 33.823 6.737 33.828 6.56849C33.8331 6.39997 33.888 6.23674 33.9858 6.09943C34.0505 6.00784 34.1326 5.92995 34.2275 5.87029C34.3225 5.81062 34.4283 5.77035 34.5388 5.7518C34.6494 5.73326 34.7625 5.7368 34.8717 5.76224C34.9809 5.78767 35.084 5.83448 35.175 5.89997Z" fill="#2ABCAA"/>
    <path d="M21.8142 24.714C21.9512 24.812 22.0561 24.9484 22.1156 25.1059C22.1751 25.2635 22.1865 25.4352 22.1484 25.5992C22.1104 25.7633 22.0245 25.9124 21.9018 26.0277C21.779 26.143 21.6248 26.2193 21.4587 26.247C21.2925 26.2747 21.1219 26.2525 20.9684 26.1833C20.8149 26.114 20.6853 26.0008 20.5961 25.858C20.5069 25.7151 20.462 25.549 20.4672 25.3807C20.4724 25.2123 20.5273 25.0493 20.6251 24.9122C20.6901 24.8209 20.7724 24.7434 20.8674 24.6841C20.9623 24.6247 21.0681 24.5847 21.1785 24.5663C21.289 24.5479 21.402 24.5514 21.5111 24.5768C21.6202 24.6021 21.7232 24.6487 21.8142 24.714Z" fill="#2ABCAA"/>
    <path d="M31.5776 4.1391C31.7943 4.20455 31.9761 4.35339 32.083 4.55287C32.1899 4.75234 32.2132 4.98613 32.1477 5.20278C32.0823 5.41944 31.9334 5.60122 31.734 5.70813C31.5345 5.81505 31.3007 5.83834 31.0841 5.77289C30.8678 5.70744 30.6865 5.55877 30.5798 5.35959C30.4732 5.16041 30.4501 4.92703 30.5155 4.7108C30.581 4.49457 30.7297 4.31319 30.9288 4.20657C31.128 4.09995 31.3614 4.07682 31.5776 4.14228" fill="#2ABCAA"/>
    <path d="M24.916 26.2315C25.0772 26.2804 25.2202 26.3759 25.327 26.5061C25.4338 26.6362 25.4997 26.7951 25.5162 26.9627C25.5327 27.1302 25.4991 27.2989 25.4197 27.4474C25.3404 27.5959 25.2188 27.7175 25.0703 27.7968C24.9218 27.8762 24.7531 27.9097 24.5855 27.8932C24.418 27.8767 24.2591 27.8108 24.129 27.704C23.9988 27.5972 23.9033 27.4541 23.8545 27.293C23.8056 27.1319 23.8057 26.9599 23.8546 26.7988C23.9207 26.5827 24.0699 26.4016 24.2694 26.2954C24.4689 26.1891 24.7024 26.1664 24.9186 26.2322" fill="#2ABCAA"/>
    <path d="M36.5433 13.642C36.5755 13.7583 36.5724 13.8816 36.5345 13.9961C36.4966 14.1107 36.4255 14.2114 36.3303 14.2856C36.2352 14.3598 36.1201 14.404 35.9997 14.4128C35.8794 14.4215 35.7591 14.3944 35.6542 14.3348C35.5493 14.2751 35.4644 14.1857 35.4104 14.0779C35.3563 13.97 35.3354 13.8485 35.3504 13.7288C35.3654 13.609 35.4156 13.4964 35.4946 13.4052C35.5737 13.314 35.678 13.2483 35.7944 13.2164C35.9501 13.1736 36.1165 13.1943 36.257 13.2742C36.3974 13.354 36.5004 13.4863 36.5433 13.642Z" fill="#2ABCAA"/>
    <path d="M20.6316 18.0326C20.6635 18.1488 20.6604 18.2719 20.6224 18.3862C20.5845 18.5006 20.5135 18.6011 20.4184 18.6751C20.3233 18.7491 20.2084 18.7933 20.0882 18.802C19.9681 18.8107 19.848 18.7836 19.7433 18.724C19.6385 18.6645 19.5538 18.5752 19.4997 18.4675C19.4457 18.3598 19.4248 18.2385 19.4397 18.119C19.4547 17.9994 19.5047 17.887 19.5835 17.7958C19.6624 17.7047 19.7665 17.639 19.8826 17.607C20.0384 17.5644 20.2047 17.5852 20.3451 17.665C20.4855 17.7448 20.5885 17.877 20.6316 18.0326Z" fill="#2ABCAA"/>
    <path d="M35.3226 11.0084C35.3907 11.1081 35.4275 11.2258 35.4286 11.3466C35.4297 11.4673 35.3949 11.5856 35.3286 11.6866C35.2623 11.7875 35.1676 11.8665 35.0564 11.9136C34.9452 11.9606 34.8226 11.9736 34.704 11.9509C34.5854 11.9281 34.4762 11.8707 34.3903 11.7859C34.3044 11.701 34.2456 11.5926 34.2214 11.4743C34.1972 11.356 34.2086 11.2332 34.2542 11.1214C34.2999 11.0096 34.3777 10.9139 34.4778 10.8464C34.5438 10.8014 34.6181 10.77 34.6964 10.7538C34.7747 10.7376 34.8553 10.737 34.9338 10.752C35.0123 10.7671 35.0871 10.7975 35.1538 10.8414C35.2205 10.8854 35.2779 10.9422 35.3226 11.0084Z" fill="#2ABCAA"/>
    <path d="M21.6854 20.3043C21.7533 20.4039 21.7902 20.5214 21.7914 20.6419C21.7925 20.7624 21.758 20.8806 21.692 20.9815C21.626 21.0824 21.5316 21.1615 21.4208 21.2087C21.3099 21.256 21.1875 21.2694 21.069 21.2471C20.9505 21.2249 20.8413 21.168 20.7551 21.0837C20.669 20.9994 20.6097 20.8915 20.5849 20.7735C20.56 20.6555 20.5707 20.5329 20.6155 20.421C20.6604 20.3091 20.7374 20.213 20.8368 20.1448C20.9708 20.0544 21.135 20.0204 21.2939 20.0503C21.4527 20.0801 21.5934 20.1714 21.6854 20.3043Z" fill="#2ABCAA"/>
    <path d="M33.1317 8.77373C33.23 8.84365 33.3054 8.94116 33.3483 9.05392C33.3912 9.16668 33.3996 9.28963 33.3726 9.40721C33.3456 9.52479 33.2843 9.63172 33.1965 9.71447C33.1087 9.79721 32.9984 9.85206 32.8794 9.87207C32.7604 9.89207 32.6382 9.87634 32.5282 9.82686C32.4181 9.77738 32.3253 9.69638 32.2613 9.5941C32.1973 9.49182 32.1651 9.37286 32.1687 9.25227C32.1724 9.13168 32.2117 9.01488 32.2818 8.91666C32.328 8.8513 32.3868 8.79574 32.4546 8.75316C32.5225 8.71058 32.598 8.68182 32.677 8.66854C32.756 8.65526 32.8368 8.65772 32.9149 8.67577C32.9929 8.69382 33.0666 8.72711 33.1317 8.77373Z" fill="#2ABCAA"/>
    <path d="M23.5753 22.2328C23.6734 22.303 23.7486 22.4007 23.7912 22.5136C23.8338 22.6265 23.842 22.7495 23.8146 22.867C23.7873 22.9845 23.7257 23.0913 23.6377 23.1738C23.5496 23.2564 23.4391 23.3109 23.32 23.3306C23.201 23.3502 23.0788 23.3341 22.9689 23.2843C22.859 23.2345 22.7663 23.1532 22.7026 23.0507C22.639 22.9482 22.6071 22.8291 22.6112 22.7085C22.6152 22.5879 22.655 22.4712 22.7253 22.3732C22.7719 22.3081 22.8308 22.2528 22.8987 22.2105C22.9667 22.1682 23.0422 22.1398 23.1212 22.1267C23.2001 22.1137 23.2809 22.1163 23.3588 22.1345C23.4367 22.1527 23.5103 22.1861 23.5753 22.2328Z" fill="#2ABCAA"/>
    <path d="M30.5595 7.51534C30.6746 7.55077 30.7765 7.6195 30.8525 7.71284C30.9286 7.80618 30.9752 7.91995 30.9866 8.03978C30.998 8.15962 30.9737 8.28015 30.9166 8.38615C30.8596 8.49216 30.7724 8.57889 30.6662 8.6354C30.5599 8.69191 30.4392 8.71566 30.3194 8.70366C30.1997 8.69166 30.0861 8.64444 29.9932 8.56797C29.9002 8.49149 29.832 8.38919 29.7971 8.27398C29.7622 8.15876 29.7623 8.0358 29.7972 7.92061C29.8201 7.84357 29.8581 7.77185 29.9089 7.70963C29.9598 7.64741 30.0225 7.59594 30.0934 7.55822C30.1644 7.52049 30.2422 7.49727 30.3222 7.48991C30.4022 7.48255 30.4829 7.49119 30.5595 7.51534Z" fill="#2ABCAA"/>
    <path d="M25.7939 23.3197C25.9087 23.3553 26.0104 23.424 26.0862 23.5173C26.162 23.6106 26.2085 23.7243 26.2198 23.844C26.2311 23.9637 26.2066 24.084 26.1496 24.1898C26.0925 24.2956 26.0054 24.3822 25.8992 24.4385C25.7931 24.4949 25.6726 24.5186 25.553 24.5065C25.4333 24.4945 25.32 24.4473 25.2272 24.3709C25.1344 24.2945 25.0662 24.1923 25.0314 24.0772C24.9966 23.9622 24.9967 23.8394 25.0316 23.7243C25.0549 23.6477 25.0932 23.5763 25.1442 23.5144C25.1952 23.4526 25.2579 23.4014 25.3287 23.3638C25.3995 23.3262 25.4771 23.3029 25.5569 23.2954C25.6367 23.2878 25.7172 23.2961 25.7939 23.3197Z" fill="#2ABCAA"/>
    <path d="M36.5433 13.642C36.5755 13.7583 36.5724 13.8816 36.5345 13.9961C36.4966 14.1107 36.4255 14.2114 36.3303 14.2856C36.2352 14.3598 36.1201 14.404 35.9997 14.4128C35.8794 14.4215 35.7591 14.3944 35.6542 14.3348C35.5493 14.2751 35.4644 14.1857 35.4104 14.0779C35.3563 13.97 35.3354 13.8485 35.3504 13.7288C35.3654 13.609 35.4156 13.4964 35.4946 13.4052C35.5737 13.314 35.678 13.2483 35.7944 13.2164C35.9501 13.1736 36.1165 13.1943 36.257 13.2742C36.3974 13.354 36.5004 13.4863 36.5433 13.642Z" fill="#2ABCAA"/>
    <path d="M20.6316 18.0326C20.6635 18.1488 20.6604 18.2719 20.6224 18.3862C20.5845 18.5006 20.5135 18.6011 20.4184 18.6751C20.3233 18.7491 20.2084 18.7933 20.0882 18.802C19.9681 18.8107 19.848 18.7836 19.7433 18.724C19.6385 18.6645 19.5538 18.5752 19.4997 18.4675C19.4457 18.3598 19.4248 18.2385 19.4397 18.119C19.4547 17.9994 19.5047 17.887 19.5835 17.7958C19.6624 17.7047 19.7665 17.639 19.8826 17.607C20.0384 17.5644 20.2047 17.5852 20.3451 17.665C20.4855 17.7448 20.5885 17.877 20.6316 18.0326Z" fill="#2ABCAA"/>
    <path d="M35.3226 11.0084C35.3907 11.1081 35.4275 11.2258 35.4286 11.3466C35.4297 11.4673 35.3949 11.5856 35.3286 11.6866C35.2623 11.7875 35.1676 11.8665 35.0564 11.9136C34.9452 11.9606 34.8226 11.9736 34.704 11.9509C34.5854 11.9281 34.4762 11.8707 34.3903 11.7859C34.3044 11.701 34.2456 11.5926 34.2214 11.4743C34.1972 11.356 34.2086 11.2332 34.2542 11.1214C34.2999 11.0096 34.3777 10.9139 34.4778 10.8464C34.5438 10.8014 34.6181 10.77 34.6964 10.7538C34.7747 10.7376 34.8553 10.737 34.9338 10.752C35.0123 10.7671 35.0871 10.7975 35.1538 10.8414C35.2205 10.8854 35.2779 10.9422 35.3226 11.0084Z" fill="#2ABCAA"/>
    <path d="M21.6854 20.3043C21.7533 20.4039 21.7902 20.5214 21.7914 20.6419C21.7925 20.7624 21.758 20.8806 21.692 20.9815C21.626 21.0824 21.5316 21.1615 21.4208 21.2087C21.3099 21.256 21.1875 21.2694 21.069 21.2471C20.9505 21.2249 20.8413 21.168 20.7551 21.0837C20.669 20.9994 20.6097 20.8915 20.5849 20.7735C20.56 20.6555 20.5707 20.5329 20.6155 20.421C20.6604 20.3091 20.7374 20.213 20.8368 20.1448C20.9708 20.0544 21.135 20.0204 21.2939 20.0503C21.4527 20.0801 21.5934 20.1714 21.6854 20.3043Z" fill="#2ABCAA"/>
    <path d="M33.1317 8.77373C33.23 8.84365 33.3054 8.94116 33.3483 9.05392C33.3912 9.16668 33.3996 9.28963 33.3726 9.40721C33.3456 9.52479 33.2843 9.63172 33.1965 9.71447C33.1087 9.79721 32.9984 9.85206 32.8794 9.87207C32.7604 9.89207 32.6382 9.87634 32.5282 9.82686C32.4181 9.77738 32.3253 9.69638 32.2613 9.5941C32.1973 9.49182 32.1651 9.37286 32.1687 9.25227C32.1724 9.13168 32.2117 9.01488 32.2818 8.91666C32.328 8.8513 32.3868 8.79574 32.4546 8.75316C32.5225 8.71058 32.598 8.68182 32.677 8.66854C32.756 8.65526 32.8368 8.65772 32.9149 8.67577C32.9929 8.69382 33.0666 8.72711 33.1317 8.77373Z" fill="#2ABCAA"/>
    <path d="M23.5753 22.2328C23.6734 22.303 23.7486 22.4007 23.7912 22.5136C23.8338 22.6265 23.842 22.7495 23.8146 22.867C23.7873 22.9845 23.7257 23.0913 23.6377 23.1738C23.5496 23.2564 23.4391 23.3109 23.32 23.3306C23.201 23.3502 23.0788 23.3341 22.9689 23.2843C22.859 23.2345 22.7663 23.1532 22.7026 23.0507C22.639 22.9482 22.6071 22.8291 22.6112 22.7085C22.6152 22.5879 22.655 22.4712 22.7253 22.3732C22.7719 22.3081 22.8308 22.2528 22.8987 22.2105C22.9667 22.1682 23.0422 22.1398 23.1212 22.1267C23.2001 22.1137 23.2809 22.1163 23.3588 22.1345C23.4367 22.1527 23.5103 22.1861 23.5753 22.2328Z" fill="#2ABCAA"/>
    <path d="M30.5595 7.51534C30.6746 7.55077 30.7765 7.6195 30.8525 7.71284C30.9286 7.80618 30.9752 7.91995 30.9866 8.03978C30.998 8.15962 30.9737 8.28015 30.9166 8.38615C30.8596 8.49216 30.7724 8.57889 30.6662 8.6354C30.5599 8.69191 30.4392 8.71566 30.3194 8.70366C30.1997 8.69166 30.0861 8.64444 29.9932 8.56797C29.9002 8.49149 29.832 8.38919 29.7971 8.27398C29.7622 8.15876 29.7623 8.0358 29.7972 7.92061C29.8201 7.84357 29.8581 7.77185 29.9089 7.70963C29.9598 7.64741 30.0225 7.59594 30.0934 7.55822C30.1644 7.52049 30.2422 7.49727 30.3222 7.48991C30.4022 7.48255 30.4829 7.49119 30.5595 7.51534Z" fill="#2ABCAA"/>
    <path d="M25.7939 23.3197C25.9087 23.3553 26.0104 23.424 26.0862 23.5173C26.162 23.6106 26.2085 23.7243 26.2198 23.844C26.2311 23.9637 26.2066 24.084 26.1496 24.1898C26.0925 24.2956 26.0054 24.3822 25.8992 24.4385C25.7931 24.4949 25.6726 24.5186 25.553 24.5065C25.4333 24.4945 25.32 24.4473 25.2272 24.3709C25.1344 24.2945 25.0662 24.1923 25.0314 24.0772C24.9966 23.9622 24.9967 23.8394 25.0316 23.7243C25.0549 23.6477 25.0932 23.5763 25.1442 23.5144C25.1952 23.4526 25.2579 23.4014 25.3287 23.3638C25.3995 23.3262 25.4771 23.3029 25.5569 23.2954C25.6367 23.2878 25.7172 23.2961 25.7939 23.3197Z" fill="#2ABCAA"/>
</svg>
