<svg xmlns="http://www.w3.org/2000/svg" x="0px" y="0px" width="350px" height="150px" viewBox="0 0 350 150">
	<g fill="#8C8C8C">
		<path d="M25.8,46.8l12.8,4.3v7.2l-20.7-8.4v-6.2l20.7-8.4v7.2L25.8,46.8z" />
		<path d="M70.7,33.3H60.4v27.8h-8.2V33.3H42.1V27h28.5V33.3z" />
		<path d="M84.1,61.1c-0.3-0.5-0.5-1.3-0.8-2.3c-1.5,1.8-3.5,2.7-6.1,2.7c-2.4,0-4.4-0.7-6.1-2.2s-2.5-3.3-2.5-5.4
		c0-2.8,1-4.8,3-6.2s5-2.1,8.9-2.1H83v-1.3c0-2.3-1-3.5-3-3.5c-1.9,0-2.8,0.9-2.8,2.8h-7.9c0-2.5,1-4.4,3.1-6s4.7-2.3,8-2.3
		s5.8,0.8,7.7,2.4s2.8,3.7,2.9,6.5v11.2c0,2.3,0.4,4.1,1.1,5.3v0.4H84.1z M79.2,55.9c1,0,1.8-0.2,2.4-0.6s1.1-0.9,1.4-1.4v-4.1h-2.3
		c-2.8,0-4.1,1.2-4.1,3.7c0,0.7,0.2,1.3,0.7,1.7S78.4,55.9,79.2,55.9z" />
		<path d="M94.4,48.2c0-2.6,0.4-4.8,1.3-6.8s2.1-3.5,3.6-4.6s3.4-1.6,5.5-1.6c2.6,0,4.7,0.9,6.2,2.7l0.3-2.2h7.2v24.4
		c0,2.2-0.5,4.2-1.6,5.8s-2.5,2.9-4.5,3.8s-4.2,1.3-6.8,1.3c-1.9,0-3.7-0.4-5.4-1.1s-3.1-1.6-4-2.7l3.3-4.6c1.5,1.7,3.4,2.6,5.8,2.6
		c3.5,0,5.2-1.8,5.2-5.4v-0.8c-1.5,1.7-3.4,2.5-5.7,2.5c-3.1,0-5.6-1.2-7.5-3.6s-2.9-5.5-2.9-9.5V48.2z M102.3,48.7
		c0,2.1,0.4,3.7,1.2,4.9s1.9,1.8,3.3,1.8c1.7,0,2.9-0.6,3.7-1.7V43.1c-0.8-1.2-2-1.7-3.7-1.7c-1.4,0-2.5,0.6-3.3,1.9
		S102.3,46.3,102.3,48.7z" />
		<path d="M125.6,64H120L131.7,27h5.6L125.6,64z" />
		<path d="M152.9,46.7l-12.8-4.3v-7.2l20.6,8.4v6.2l-20.6,8.4v-7.2L152.9,46.7z" />
		<path d="M18,112.2c0-4,0.9-7.2,2.6-9.5s4.2-3.5,7.3-3.5c2.3,0,4.2,0.9,5.7,2.7V89.1h7.9v36h-7.1l-0.4-2.7
		c-1.6,2.1-3.7,3.2-6.2,3.2c-3,0-5.4-1.2-7.2-3.5S18,116.5,18,112.2z M25.9,112.7c0,4.5,1.3,6.8,3.9,6.8c1.8,0,3-0.7,3.8-2.2v-9.7
		c-0.7-1.5-2-2.2-3.7-2.2c-2.4,0-3.8,2-4,5.9L25.9,112.7z" />
		<path d="M58.3,125.6c-3.9,0-7-1.2-9.4-3.5s-3.6-5.3-3.6-9.1v-0.7c0-2.6,0.5-4.9,1.4-6.9s2.4-3.5,4.2-4.6s4-1.6,6.6-1.6
		c3.6,0,6.4,1.1,8.4,3.3s3.1,5.3,3.1,9.2v3.1H53.3c0.3,1.4,0.9,2.5,1.9,3.4s2.2,1.2,3.7,1.2c2.5,0,4.5-0.9,5.9-2.6l3.6,4.3
		c-1,1.4-2.4,2.4-4.2,3.2S60.4,125.6,58.3,125.6z M57.4,105.4c-2.3,0-3.7,1.5-4.1,4.6h8v-0.6c0-1.3-0.3-2.2-1-2.9
		S58.7,105.4,57.4,105.4z" />
		<path d="M85.5,118c0-0.7-0.4-1.2-1.1-1.6s-2-0.8-4-1.3s-3.6-1-4.9-1.7s-2.3-1.6-2.9-2.6s-1-2.2-1-3.5
		c0-2.3,1-4.2,2.9-5.8s4.4-2.3,7.5-2.3c3.3,0,6,0.8,8.1,2.3s3,3.5,3,6h-7.9c0-2-1.1-3-3.2-3c-0.8,0-1.5,0.2-2.1,0.7s-0.8,1-0.8,1.7
		c0,0.7,0.3,1.3,1,1.7s1.8,0.8,3.3,1.1s2.8,0.6,4,1c3.8,1.3,5.7,3.7,5.7,7.1c0,2.3-1,4.2-3.1,5.6s-4.7,2.2-8,2.2
		c-2.2,0-4.1-0.4-5.8-1.2s-3-1.8-4-3.2s-1.4-2.8-1.4-4.2h7.4c0,1.2,0.4,2,1.2,2.6s1.7,0.8,2.9,0.8c1.1,0,1.9-0.2,2.4-0.7
		S85.5,118.7,85.5,118z" />
		<path d="M96.7,93.2c0-1.1,0.4-2,1.2-2.8s1.9-1.1,3.2-1.1s2.4,0.4,3.2,1.1s1.2,1.6,1.2,2.8s-0.4,2-1.2,2.8
		s-1.9,1.1-3.2,1.1s-2.4-0.4-3.2-1.1S96.7,94.3,96.7,93.2z M105.1,125.1h-7.9V99.7h7.9V125.1z" />
		<path d="M109,112.2c0-2.6,0.4-4.8,1.3-6.8s2.1-3.5,3.6-4.6s3.4-1.6,5.5-1.6c2.6,0,4.7,0.9,6.2,2.7l0.3-2.2h7.2v24.4
		c0,2.2-0.5,4.2-1.6,5.8s-2.5,2.9-4.5,3.8s-4.2,1.3-6.8,1.3c-1.9,0-3.7-0.4-5.4-1.1s-3.1-1.6-4-2.7l3.3-4.6c1.5,1.7,3.4,2.6,5.8,2.6
		c3.5,0,5.2-1.8,5.2-5.4v-0.8c-1.5,1.7-3.4,2.5-5.7,2.5c-3.1,0-5.6-1.2-7.5-3.6s-2.9-5.5-2.9-9.5V112.2z M117,112.7
		c0,2.1,0.4,3.7,1.2,4.9s1.9,1.8,3.3,1.8c1.7,0,2.9-0.6,3.7-1.7v-10.7c-0.8-1.2-2-1.7-3.7-1.7c-1.4,0-2.5,0.6-3.3,1.9
		S117,110.3,117,112.7z" />
		<path d="M144.8,99.7l0.3,3c1.8-2.3,4.2-3.4,7.2-3.4c2.6,0,4.6,0.8,5.9,2.4s2,4,2,7.1v16.3h-7.9v-16
		c0-1.3-0.3-2.2-0.8-2.8s-1.5-0.9-2.8-0.9c-1.5,0-2.7,0.6-3.4,1.8v17.9h-7.9V99.7H144.8z" />
		<path d="M189.9,118c0-0.7-0.4-1.2-1.1-1.6s-2-0.8-4-1.3s-3.6-1-4.9-1.7s-2.3-1.6-2.9-2.6s-1-2.2-1-3.5
		c0-2.3,1-4.2,2.9-5.8s4.4-2.3,7.5-2.3c3.3,0,6,0.8,8.1,2.3s3,3.5,3,6h-7.9c0-2-1.1-3-3.2-3c-0.8,0-1.5,0.2-2.1,0.7s-0.8,1-0.8,1.7
		c0,0.7,0.3,1.3,1,1.7s1.8,0.8,3.3,1.1s2.8,0.6,4,1c3.8,1.3,5.7,3.7,5.7,7.1c0,2.3-1,4.2-3.1,5.6s-4.7,2.2-8,2.2
		c-2.2,0-4.1-0.4-5.8-1.2s-3-1.8-4-3.2c-1-1.3-1.4-2.8-1.4-4.2h7.4c0,1.2,0.4,2,1.2,2.6s1.7,0.8,2.9,0.8c1.1,0,1.9-0.2,2.4-0.7
		S189.9,118.7,189.9,118z" />
		<path d="M211.3,114l4.2-14.3h8.5l-10.3,29.6l-0.4,1.1c-1.5,3.3-4.1,4.9-7.8,4.9c-1,0-2.1-0.2-3.3-0.5v-5.6h1
		c1.1,0,2-0.2,2.5-0.5c0.6-0.3,1-0.9,1.3-1.7l0.6-1.7l-8.8-25.6h8.4L211.3,114z" />
		<path d="M239.3,118c0-0.7-0.4-1.2-1.1-1.6s-2-0.8-4-1.3s-3.6-1-4.9-1.7s-2.3-1.6-2.9-2.6s-1-2.2-1-3.5
		c0-2.3,1-4.2,2.9-5.8s4.4-2.3,7.5-2.3c3.3,0,6,0.8,8.1,2.3s3,3.5,3,6h-7.9c0-2-1.1-3-3.2-3c-0.8,0-1.5,0.2-2.1,0.7s-0.8,1-0.8,1.7
		c0,0.7,0.3,1.3,1,1.7s1.8,0.8,3.3,1.1s2.8,0.6,4,1c3.8,1.3,5.7,3.7,5.7,7.1c0,2.3-1,4.2-3.1,5.6s-4.7,2.2-8,2.2
		c-2.2,0-4.1-0.4-5.8-1.2s-3-1.8-4-3.2s-1.4-2.8-1.4-4.2h7.4c0,1.2,0.4,2,1.2,2.6s1.7,0.8,2.9,0.8c1.1,0,1.9-0.2,2.4-0.7
		S239.3,118.7,239.3,118z" />
		<path d="M259.8,93.4v6.3h4.2v5.5h-4.2v11.6c0,1,0.2,1.6,0.5,2s1,0.6,2,0.6c0.8,0,1.4,0,2-0.1v5.6
		c-1.4,0.5-2.9,0.7-4.5,0.7c-2.7,0-4.7-0.6-6-1.9s-1.9-3.2-1.9-5.8v-12.6h-3.2v-5.5h3.2v-6.3H259.8z" />
		<path d="M279.4,125.6c-3.9,0-7-1.2-9.4-3.5s-3.6-5.3-3.6-9.1v-0.7c0-2.6,0.5-4.9,1.4-6.9s2.4-3.5,4.2-4.6
		s4-1.6,6.6-1.6c3.6,0,6.4,1.1,8.4,3.3s3.1,5.3,3.1,9.2v3.1h-15.7c0.3,1.4,0.9,2.5,1.9,3.4s2.2,1.2,3.7,1.2c2.5,0,4.5-0.9,5.9-2.6
		l3.6,4.3c-1,1.4-2.4,2.4-4.2,3.2S281.5,125.6,279.4,125.6z M278.5,105.4c-2.3,0-3.7,1.5-4.1,4.6h8v-0.6c0-1.3-0.3-2.2-1-2.9
		S279.7,105.4,278.5,105.4z" />
		<path d="M300.7,99.7l0.3,3c1.8-2.3,4.2-3.4,7.2-3.4c3.2,0,5.4,1.3,6.5,3.8c1.7-2.5,4.2-3.8,7.5-3.8
		c5.1,0,7.8,3.1,7.9,9.3v16.5h-7.9v-16c0-1.3-0.2-2.2-0.7-2.8s-1.2-0.9-2.4-0.9c-1.6,0-2.7,0.7-3.5,2.1l0,0.3v17.3h-7.9v-16
		c0-1.3-0.2-2.3-0.6-2.9s-1.2-0.9-2.4-0.9c-1.5,0-2.7,0.7-3.5,2.1v17.6h-7.9V99.7H300.7z" />
	</g>
</svg>